<svg width="44" height="44" viewBox="0 0 44 44" fill="none" xmlns="http://www.w3.org/2000/svg">
<rect width="44" height="44" rx="22" fill="#353945"/>
<path d="M15.72 26.6733L15.7066 26.6867C15.5266 26.2933 15.4133 25.8467 15.3666 25.3533C15.4133 25.84 15.54 26.28 15.72 26.6733Z" fill="white"/>
<path d="M20 20.92C20.8763 20.92 21.5867 20.2096 21.5867 19.3333C21.5867 18.457 20.8763 17.7467 20 17.7467C19.1237 17.7467 18.4133 18.457 18.4133 19.3333C18.4133 20.2096 19.1237 20.92 20 20.92Z" fill="white"/>
<path d="M24.7933 15.3333H19.2066C16.78 15.3333 15.3333 16.78 15.3333 19.2067V24.7933C15.3333 25.52 15.46 26.1533 15.7066 26.6867C16.28 27.9533 17.5066 28.6667 19.2066 28.6667H24.7933C27.22 28.6667 28.6666 27.22 28.6666 24.7933V23.2667V19.2067C28.6666 16.78 27.22 15.3333 24.7933 15.3333ZM27.58 22.3333C27.06 21.8867 26.22 21.8867 25.7 22.3333L22.9266 24.7133C22.4066 25.16 21.5666 25.16 21.0466 24.7133L20.82 24.5267C20.3466 24.1133 19.5933 24.0733 19.06 24.4333L16.5666 26.1067C16.42 25.7333 16.3333 25.3 16.3333 24.7933V19.2067C16.3333 17.3267 17.3266 16.3333 19.2066 16.3333H24.7933C26.6733 16.3333 27.6666 17.3267 27.6666 19.2067V22.4067L27.58 22.3333Z" fill="white"/>
</svg>
