<svg width="25" height="24" viewBox="0 0 25 24" fill="none" xmlns="http://www.w3.org/2000/svg">
<g clip-path="url(#clip0_5_133)">
<path d="M23.4058 14.2311L23.0476 13.9899L21.2563 15.0151L22.5102 15.7387C22.749 15.8593 22.8087 16.1005 22.8087 16.2211C22.8087 16.3417 22.8087 16.5829 22.5102 16.7035L14.0913 21.5879C12.9568 22.2512 11.5835 22.2512 10.5087 21.5879L2.08981 16.7638C1.79126 16.6432 1.79126 16.402 1.79126 16.2814C1.79126 16.1608 1.79126 15.9196 2.08981 15.799L3.34369 15.0754L1.55243 14.0502L1.19417 14.2311C0.47767 14.6532 0 15.4372 0 16.2814C0 17.1256 0.417961 17.9095 1.19417 18.3316L9.61311 23.2161C10.449 23.6985 11.4044 23.9397 12.3 23.9397C13.2553 23.9397 14.151 23.6985 14.9869 23.2161L23.4058 18.3316C24.1223 17.9095 24.6 17.1256 24.6 16.2814C24.6 15.4372 24.1223 14.6532 23.4058 14.2311Z" fill="#777E91"/>
<path d="M23.4058 9.04521L22.0325 8.26129C21.8534 8.44219 21.6146 8.6231 21.3757 8.804L20.3607 9.40702L22.5102 10.6734C22.749 10.794 22.8087 11.0352 22.8087 11.1558C22.8087 11.2764 22.8087 11.5176 22.5102 11.6382L14.0913 16.5226C12.9568 17.1859 11.5835 17.1859 10.5087 16.5226L2.08981 11.5779C1.79126 11.397 1.79126 11.1558 1.79126 11.0955C1.79126 11.0352 1.79126 10.7337 2.08981 10.613L4.23932 9.34672L3.22427 8.7437C2.98544 8.6231 2.7466 8.44219 2.56748 8.20099L1.19417 9.04521C0.47767 9.46732 0 10.2512 0 11.0955C0 11.9397 0.417961 12.7236 1.19417 13.1457L9.61311 18.0301C10.449 18.5125 11.4044 18.7538 12.3 18.7538C13.2553 18.7538 14.151 18.5125 14.9869 18.0301L23.4058 13.1457C24.1223 12.7236 24.6 11.9397 24.6 11.0955C24.6 10.2512 24.1223 9.46732 23.4058 9.04521Z" fill="#353945"/>
<path d="M12.3 12C11.5835 12 10.8073 11.8191 10.1505 11.397L3.82138 7.71856C3.2243 7.35675 2.80634 6.69344 2.80634 5.96982C2.80634 5.2462 3.16459 4.58288 3.82138 4.22108L10.1505 0.602985C11.4641 -0.180935 13.1359 -0.180935 14.4495 0.602985L20.7787 4.28138C21.3757 4.64319 21.7937 5.3065 21.7937 6.03012C21.7937 6.75374 21.4355 7.41706 20.7787 7.77886L14.4495 11.4573C13.7927 11.7588 13.0165 12 12.3 12Z" fill="#3772FF"/>
</g>
<defs>
<clipPath id="clip0_5_133">
<rect width="24.6" height="24" fill="white"/>
</clipPath>
</defs>
</svg>
